<svg width="22" height="20" viewBox="0 0 22 20" fill="none" xmlns="http://www.w3.org/2000/svg">
<path d="M4.80391 1.69461C7.31328 3.57234 10.0117 7.38797 11 9.43758C11.9883 7.39227 14.6867 3.57664 17.1961 1.69461C19.0051 0.336796 21.9355 -0.711642 21.9355 2.63133C21.9355 3.29734 21.5531 8.23875 21.3297 9.04227C20.5477 11.8266 17.7031 12.5399 15.1723 12.1059C19.5938 12.8579 20.7195 15.3501 18.2875 17.8423C13.6727 22.5774 11.6574 16.6563 11.1418 15.1395C11.0687 14.929 11.0301 14.8044 11 14.8044C10.9699 14.8044 10.9312 14.9333 10.8582 15.1395C10.3426 16.6563 8.32305 22.5774 3.7125 17.8423C1.28477 15.3501 2.40625 12.8579 6.82773 12.1059C4.29687 12.5399 1.45234 11.8266 0.674609 9.03797C0.446875 8.23445 0.0644531 3.29305 0.0644531 2.62703C0.0644531 -0.715939 2.99492 0.332499 4.80391 1.69031V1.69461Z" fill="white"/>
</svg>
