<svg width="173" height="119" viewBox="0 0 173 119" fill="none" xmlns="http://www.w3.org/2000/svg">
<path d="M20.5806 53.2455C53.0223 29.7787 98.5762 25.5519 129.043 29.0085C142.803 30.5695 155.522 34.0463 160.265 41.5322C164.345 47.9664 161.522 57.9238 150.8 66.6261C137.288 77.5946 115.332 82.3529 98.0019 85.1309C81.273 87.8126 65.2229 88.5775 51.0597 87.4643C37.1293 86.3696 23.6811 83.6517 15.7147 78.0361C7.25028 72.0692 6.28345 60.8983 21.8013 50.3462C37.1168 39.9331 59.4193 35.5727 76.8897 33.0856C96.6787 30.2691 115.366 29.4744 132.591 30.4216C134.508 30.5275 136.32 28.4651 134.406 28.3619C115.508 27.3304 94.8807 28.3871 73.0595 31.7812C56.2052 34.4018 35.5305 39.1535 20.6815 48.7918C7.18085 57.5547 3.56258 67.7614 7.66424 74.6803C12.823 83.3884 28.6624 87.328 44.4295 89.0727C60.1762 90.8165 78.3877 90.1283 97.5224 87.0708C115.206 84.2443 137.163 79.3199 151.63 68.5169C162.869 60.1228 167.055 50.4248 165.058 43.3179C162.539 34.354 150.005 29.6979 135.86 27.5851C104.116 22.8426 53.5595 26.9509 18.5097 52.3357C16.8129 53.5643 18.8664 54.4859 20.5806 53.2455Z" fill="#FEA36F"/>
</svg>
